inDegrees=no
num_controls=7
num_derivatives=13
num_iterations=103
num_multipliers=7
num_parameters=0
num_slacks=7
num_states=26
objective=0.430642
objective_accelerations=0.050538
objective_balance=0.006888
objective_effort=0.030920
objective_height=0.341143
objective_ligament=0.001152
solver_duration=1343.881785
status=Solve_Succeeded
success=true
DataType=double
version=3
OpenSimVersion=4.5
endheader
time	/jointset/ground_pelvis/pelvis_tilt/value	/jointset/ground_pelvis/pelvis_tx/value	/jointset/ground_pelvis/pelvis_ty/value	/jointset/hip_l/hip_flexion_l/value	/jointset/hip_l/hip_adduction_l/value	/jointset/hip_l/hip_rotation_l/value	/jointset/back/lumbar_extension/value	/jointset/patellofemoral_l/patellar_flexion_l/value	/jointset/knee_l/knee_flexion_l/value	/jointset/knee_l/knee_adduction_l/value	/jointset/knee_l/knee_rotation_l/value	/jointset/ankle_l/ankle_angle_l/value	/jointset/subtalar_l/subtalar_angle_l/value	/jointset/ground_pelvis/pelvis_tilt/speed	/jointset/ground_pelvis/pelvis_tx/speed	/jointset/ground_pelvis/pelvis_ty/speed	/jointset/hip_l/hip_flexion_l/speed	/jointset/hip_l/hip_adduction_l/speed	/jointset/hip_l/hip_rotation_l/speed	/jointset/back/lumbar_extension/speed	/jointset/patellofemoral_l/patellar_flexion_l/speed	/jointset/knee_l/knee_flexion_l/speed	/jointset/knee_l/knee_adduction_l/speed	/jointset/knee_l/knee_rotation_l/speed	/jointset/ankle_l/ankle_angle_l/speed	/jointset/subtalar_l/subtalar_angle_l/speed	/forceset/tau_hip_flexion_l	/forceset/tau_hip_adduction_l	/forceset/tau_hip_rotation_l	/forceset/tau_knee_flexion_l	/forceset/tau_ankle_angle_l	/forceset/tau_subtalar_angle_l	/forceset/tau_lumbar_extension	lambda_cid13_p0	lambda_cid13_p1	lambda_cid13_p2	lambda_cid13_p3	lambda_cid13_p4	lambda_cid13_p5	lambda_cid14_p0	/jointset/ground_pelvis/pelvis_tilt/accel	/jointset/ground_pelvis/pelvis_tx/accel	/jointset/ground_pelvis/pelvis_ty/accel	/jointset/hip_l/hip_flexion_l/accel	/jointset/hip_l/hip_adduction_l/accel	/jointset/hip_l/hip_rotation_l/accel	/jointset/back/lumbar_extension/accel	/jointset/patellofemoral_l/patellar_flexion_l/accel	/jointset/knee_l/knee_flexion_l/accel	/jointset/knee_l/knee_adduction_l/accel	/jointset/knee_l/knee_rotation_l/accel	/jointset/ankle_l/ankle_angle_l/accel	/jointset/subtalar_l/subtalar_angle_l/accel	gamma_cid13_p0	gamma_cid13_p1	gamma_cid13_p2	gamma_cid13_p3	gamma_cid13_p4	gamma_cid13_p5	gamma_cid14_p0
0.5	-0.3265568237091947	-0.0306305206261945	0.7662919107325994	1.161490777863362	-0.3050634326237192	0.01095769685623458	-0.323602198177699	0.8182605386654561	0.8182605386655557	-0.1733840783165541	0.1674719212791727	0.1649851527755495	-0.01928773573944657	-0.414617580396738	-0.1636822469966648	-0.5106789031925152	2.112434186099776	0.0132027960226976	0.7084848745867434	-0.6300584862138455	2.12206470812448	2.122064708124436	-0.006657826199847687	0.04107162796738748	0.548968005081616	0.1049866704747431	-0.18241507389775	0.01912498466803329	-0.02702871892197821	-0.2651714124650414	0.1104953237667486	0.03566740714102497	0.1838401931663747	-2.726596101464534	-17.63526782191935	5.40444534770017	-4.054313689189849	-605.2078740237991	-58.41580215721574	-20.41513769091068	0.4790267084970695	0.5936446891352152	-0.4262143569235464	-1.35187959849932	0.6949239854876221	-0.3684279556805846	1.675059486466727	-1.373678656458936	-1.373678656458922	0.04605667629903561	-0.08746225259790384	-0.5215701962742968	0.7288602995780827	-4.30252762424551e-07	-3.878028340492583e-07	2.683450202931858e-06	3.023837552363497e-07	-5.12031499630293e-07	-2.522748297494242e-07	-4.147146400950018e-07
0.51	-0.3306782063695288	-0.03223744940798872	0.7611649297220117	1.182543964669879	-0.304898143499104	0.01802541560922835	-0.3298186054265134	0.8394089698883386	0.8394089698883742	-0.1734519872254171	0.1678777932064408	0.1704474353213267	-0.0182031477736117	-0.4096106528395592	-0.1576880040293107	-0.5146048189057967	2.097916961439879	0.01982721621253051	0.704967453920947	-0.6131453332361301	2.107329530741686	2.107329530741658	-0.006916059438519219	0.04010268247423556	0.5434043033162886	0.1119064799668066	-0.1885220847052316	0.0195209749010136	-0.02709856320034483	-0.2683364796410334	0.1092896827654316	0.03563275630185559	0.1890212023308434	-3.355955646642882	-17.40070683280152	5.242183972295918	-3.875541073932309	-609.6956043625584	-58.04756175804639	-19.11599829862686	0.5187365877551691	0.6046995314815301	-0.3590061551302435	-1.544622501125016	0.641671395101717	-0.3574661314000418	1.711087750347022	-1.567157981180955	-1.567157981178583	-0.06054058046632915	-0.1021385454879462	-0.5863805681871834	0.6696207542958915	-3.968865273512468e-07	-2.794935903816792e-07	2.565715846690612e-06	2.972416139843486e-07	-4.741797537471636e-07	-1.545387937784078e-07	-3.885716519882833e-07
0.52	-0.3347480775926058	-0.03378395867392017	0.7560020443589712	1.203443383509518	-0.3046675161007164	0.02505514675369052	-0.335863552236166	0.8604013051969949	0.8604013051969669	-0.1735222339179698	0.168273870109214	0.1758515587691457	-0.01705014581680112	-0.4043152929453059	-0.1515983438241132	-0.5178597736830707	2.081680592724374	0.02627045077718629	0.7008873528803155	-0.595766398381493	2.09084552527924	2.090845525279227	-0.007125382937833542	0.03911262306851945	0.5373361854899522	0.1186694686698866	-0.1946290955127133	0.01991696513399653	-0.02716840747872776	-0.2715015468170229	0.1080840417641157	0.03559810546268952	0.1942022114953112	-3.990627497058905	-17.16640223474388	5.08132071163732	-3.714500877786115	-614.2898552578212	-57.76215075559091	-17.81652995991273	0.5367131759119705	0.6127281367039138	-0.2920221697220518	-1.695708409620902	0.658686860452191	-0.4809640306476302	1.768215861851025	-1.72344427238942	-1.723444272389509	0.05583862417047665	-0.09168503511074239	-0.6224534084760779	0.6974961417813962	-3.665950277658966e-07	-1.70078910424444e-07	2.460802800935452e-06	2.95396343129299e-07	-4.424236174967177e-07	-6.133909412125707e-08	-3.639203884572386e-07
0.53	-0.3387637066308769	-0.03526916314861291	0.7508099913164342	1.224172158235744	-0.3043732150588591	0.03204133097663451	-0.3417325000865133	0.8812202861138828	0.8812202861139512	-0.1735940024028635	0.1686598243248962	0.181192638387301	-0.01583012598333908	-0.3987704589505948	-0.1454327537323433	-0.5204349466356798	2.063802616249089	0.03255842301886362	0.6962600831699984	-0.5779637288443257	2.072671544597419	2.072671544597459	-0.00721590318176745	0.03807617149717219	0.5308044175789217	0.1253060653228748	-0.200490729492981	0.02007112825103598	-0.02718274395219497	-0.274848765254819	0.1071140612060227	0.03544370153488889	0.1991617570486929	-4.55165608443828	-16.8875474619297	4.907144049635724	-3.561127042989795	-618.8407347170629	-57.45244458467987	-16.52022512964308	0.5693501765177612	0.6200029381805829	-0.222966778452647	-1.874640621705482	0.6088059589291205	-0.467321522489252	1.795208926185564	-1.906171796771942	-1.906171796763864	-0.03958359048660563	-0.1104093342039633	-0.6798102392258961	0.6422117659941773	-3.355714642850067e-07	-8.579306193271728e-08	2.337679821574421e-06	2.888677029683102e-07	-4.106387107249631e-07	1.794831467784545e-08	-3.389273072009691e-07
